<mxfile host="app.diagrams.net" agent="Mozilla/5.0 (Windows NT 10.0; Win64; x64) AppleWebKit/537.36 (KHTML, like Gecko) Chrome/128.0.0.0 Safari/537.36" version="24.7.13">
  <diagram name="Page-1" id="eEh4WSqYL5A9nxHyGwap">
    <mxGraphModel dx="1032" dy="501" grid="1" gridSize="10" guides="1" tooltips="1" connect="1" arrows="1" fold="1" page="1" pageScale="1" pageWidth="1600" pageHeight="1200" math="0" shadow="0">
      <root>
        <mxCell id="0" />
        <mxCell id="1" parent="0" />
        <mxCell id="3GlJ5z1SRwsA6suBAlrv-1" value="" style="edgeStyle=orthogonalEdgeStyle;rounded=0;orthogonalLoop=1;jettySize=auto;html=1;" edge="1" parent="1">
          <mxGeometry relative="1" as="geometry">
            <mxPoint x="-44.00005193908078" y="113.0526315789474" as="sourcePoint" />
          </mxGeometry>
        </mxCell>
        <mxCell id="3GlJ5z1SRwsA6suBAlrv-2" value="" style="rounded=0;whiteSpace=wrap;html=1;fillColor=#eeeeee;strokeColor=none;dashed=1;" vertex="1" parent="1">
          <mxGeometry x="547.1329987452948" y="20" width="632.1204516938519" height="394.55782312925174" as="geometry" />
        </mxCell>
        <mxCell id="3GlJ5z1SRwsA6suBAlrv-3" value="" style="edgeStyle=orthogonalEdgeStyle;rounded=0;orthogonalLoop=1;jettySize=auto;html=1;" edge="1" parent="1" source="3GlJ5z1SRwsA6suBAlrv-4" target="3GlJ5z1SRwsA6suBAlrv-9">
          <mxGeometry relative="1" as="geometry" />
        </mxCell>
        <mxCell id="3GlJ5z1SRwsA6suBAlrv-4" value="User log in" style="ellipse;whiteSpace=wrap;html=1;fillColor=#f8cecc;strokeColor=#b85450;" vertex="1" parent="1">
          <mxGeometry x="40" y="139.6825396825397" width="172.39648682559599" height="105.2154195011338" as="geometry" />
        </mxCell>
        <mxCell id="3GlJ5z1SRwsA6suBAlrv-5" value="" style="edgeStyle=orthogonalEdgeStyle;rounded=0;orthogonalLoop=1;jettySize=auto;html=1;" edge="1" parent="1" source="3GlJ5z1SRwsA6suBAlrv-9" target="3GlJ5z1SRwsA6suBAlrv-10">
          <mxGeometry relative="1" as="geometry" />
        </mxCell>
        <mxCell id="3GlJ5z1SRwsA6suBAlrv-6" value="false" style="edgeLabel;html=1;align=center;verticalAlign=middle;resizable=0;points=[];" vertex="1" connectable="0" parent="3GlJ5z1SRwsA6suBAlrv-5">
          <mxGeometry x="-0.4146" y="-1" relative="1" as="geometry">
            <mxPoint as="offset" />
          </mxGeometry>
        </mxCell>
        <mxCell id="3GlJ5z1SRwsA6suBAlrv-7" value="" style="edgeStyle=orthogonalEdgeStyle;rounded=0;orthogonalLoop=1;jettySize=auto;html=1;" edge="1" parent="1" source="3GlJ5z1SRwsA6suBAlrv-9" target="3GlJ5z1SRwsA6suBAlrv-12">
          <mxGeometry relative="1" as="geometry" />
        </mxCell>
        <mxCell id="3GlJ5z1SRwsA6suBAlrv-8" value="true" style="edgeLabel;html=1;align=center;verticalAlign=middle;resizable=0;points=[];" vertex="1" connectable="0" parent="3GlJ5z1SRwsA6suBAlrv-7">
          <mxGeometry x="0.6195" y="1" relative="1" as="geometry">
            <mxPoint x="1" y="-11" as="offset" />
          </mxGeometry>
        </mxCell>
        <mxCell id="3GlJ5z1SRwsA6suBAlrv-9" value="Check credentials" style="rhombus;whiteSpace=wrap;html=1;fillColor=#dae8fc;strokeColor=#6c8ebf;" vertex="1" parent="1">
          <mxGeometry x="241.12923462986197" y="139.6825396825397" width="114.93099121706399" height="105.2154195011338" as="geometry" />
        </mxCell>
        <mxCell id="3GlJ5z1SRwsA6suBAlrv-10" value="Display message" style="shape=parallelogram;perimeter=parallelogramPerimeter;whiteSpace=wrap;html=1;fixedSize=1;fillColor=#d5e8d4;strokeColor=#82b366;" vertex="1" parent="1">
          <mxGeometry x="212.39648682559596" y="294.87528344671205" width="172.39648682559599" height="78.91156462585035" as="geometry" />
        </mxCell>
        <mxCell id="3GlJ5z1SRwsA6suBAlrv-11" value="" style="edgeStyle=orthogonalEdgeStyle;rounded=0;orthogonalLoop=1;jettySize=auto;html=1;" edge="1" parent="1" source="3GlJ5z1SRwsA6suBAlrv-12" target="3GlJ5z1SRwsA6suBAlrv-16">
          <mxGeometry relative="1" as="geometry" />
        </mxCell>
        <mxCell id="3GlJ5z1SRwsA6suBAlrv-12" value="Display UI and welcome message" style="shape=parallelogram;perimeter=parallelogramPerimeter;whiteSpace=wrap;html=1;fixedSize=1;fillColor=#d5e8d4;strokeColor=#82b366;" vertex="1" parent="1">
          <mxGeometry x="370.42659974905894" y="152.83446712018144" width="172.39648682559599" height="78.91156462585035" as="geometry" />
        </mxCell>
        <mxCell id="3GlJ5z1SRwsA6suBAlrv-13" style="edgeStyle=orthogonalEdgeStyle;rounded=1;orthogonalLoop=1;jettySize=auto;html=1;exitX=0.75;exitY=0;exitDx=0;exitDy=0;entryX=0;entryY=0.5;entryDx=0;entryDy=0;curved=0;" edge="1" parent="1" source="3GlJ5z1SRwsA6suBAlrv-16" target="3GlJ5z1SRwsA6suBAlrv-18">
          <mxGeometry relative="1" as="geometry" />
        </mxCell>
        <mxCell id="3GlJ5z1SRwsA6suBAlrv-14" style="edgeStyle=orthogonalEdgeStyle;rounded=1;orthogonalLoop=1;jettySize=auto;html=1;exitX=1;exitY=0.75;exitDx=0;exitDy=0;entryX=0;entryY=0.5;entryDx=0;entryDy=0;curved=0;" edge="1" parent="1" source="3GlJ5z1SRwsA6suBAlrv-16" target="3GlJ5z1SRwsA6suBAlrv-25">
          <mxGeometry relative="1" as="geometry" />
        </mxCell>
        <mxCell id="3GlJ5z1SRwsA6suBAlrv-15" style="edgeStyle=orthogonalEdgeStyle;rounded=1;orthogonalLoop=1;jettySize=auto;html=1;entryX=1;entryY=0.5;entryDx=0;entryDy=0;curved=0;endArrow=none;endFill=0;startArrow=classic;startFill=1;" edge="1" parent="1" source="3GlJ5z1SRwsA6suBAlrv-16" target="3GlJ5z1SRwsA6suBAlrv-43">
          <mxGeometry relative="1" as="geometry">
            <Array as="points">
              <mxPoint x="636.2045169385194" y="427.7097505668935" />
              <mxPoint x="840.2070263488081" y="427.7097505668935" />
              <mxPoint x="840.2070263488081" y="705.2154195011339" />
            </Array>
          </mxGeometry>
        </mxCell>
        <mxCell id="3GlJ5z1SRwsA6suBAlrv-16" value="Update UI" style="shape=parallelogram;perimeter=parallelogramPerimeter;whiteSpace=wrap;html=1;fixedSize=1;fillColor=#d5e8d4;strokeColor=#82b366;" vertex="1" parent="1">
          <mxGeometry x="550.0062735257214" y="152.83446712018144" width="172.39648682559599" height="78.91156462585035" as="geometry" />
        </mxCell>
        <mxCell id="3GlJ5z1SRwsA6suBAlrv-17" value="" style="edgeStyle=orthogonalEdgeStyle;rounded=0;orthogonalLoop=1;jettySize=auto;html=1;" edge="1" parent="1" source="3GlJ5z1SRwsA6suBAlrv-18" target="3GlJ5z1SRwsA6suBAlrv-19">
          <mxGeometry relative="1" as="geometry" />
        </mxCell>
        <mxCell id="3GlJ5z1SRwsA6suBAlrv-18" value="Calculate balance" style="whiteSpace=wrap;html=1;fillColor=#ffe6cc;strokeColor=#d79b00;" vertex="1" parent="1">
          <mxGeometry x="787.051442910916" y="34.4671201814059" width="172.39648682559599" height="78.91156462585035" as="geometry" />
        </mxCell>
        <mxCell id="3GlJ5z1SRwsA6suBAlrv-19" value="Display balance" style="shape=parallelogram;perimeter=parallelogramPerimeter;whiteSpace=wrap;html=1;fixedSize=1;fillColor=#d5e8d4;strokeColor=#82b366;" vertex="1" parent="1">
          <mxGeometry x="1002.5470514429107" y="34.4671201814059" width="172.39648682559599" height="78.91156462585035" as="geometry" />
        </mxCell>
        <mxCell id="3GlJ5z1SRwsA6suBAlrv-20" value="" style="edgeStyle=orthogonalEdgeStyle;rounded=0;orthogonalLoop=1;jettySize=auto;html=1;" edge="1" parent="1" source="3GlJ5z1SRwsA6suBAlrv-21" target="3GlJ5z1SRwsA6suBAlrv-22">
          <mxGeometry relative="1" as="geometry" />
        </mxCell>
        <mxCell id="3GlJ5z1SRwsA6suBAlrv-21" value="Calculate summary" style="rounded=0;whiteSpace=wrap;html=1;fillColor=#ffe6cc;strokeColor=#d79b00;" vertex="1" parent="1">
          <mxGeometry x="787.051442910916" y="137.05215419501133" width="172.39648682559599" height="78.91156462585035" as="geometry" />
        </mxCell>
        <mxCell id="3GlJ5z1SRwsA6suBAlrv-22" value="Display summary" style="shape=parallelogram;perimeter=parallelogramPerimeter;whiteSpace=wrap;html=1;fixedSize=1;rounded=0;fillColor=#d5e8d4;strokeColor=#82b366;" vertex="1" parent="1">
          <mxGeometry x="973.814303638645" y="137.05215419501133" width="172.39648682559599" height="78.91156462585035" as="geometry" />
        </mxCell>
        <mxCell id="3GlJ5z1SRwsA6suBAlrv-23" style="edgeStyle=orthogonalEdgeStyle;rounded=1;orthogonalLoop=1;jettySize=auto;html=1;exitX=0;exitY=0.5;exitDx=0;exitDy=0;entryX=0.75;entryY=1;entryDx=0;entryDy=0;curved=0;startArrow=classic;startFill=1;endArrow=none;endFill=0;" edge="1" parent="1" source="3GlJ5z1SRwsA6suBAlrv-24" target="3GlJ5z1SRwsA6suBAlrv-16">
          <mxGeometry relative="1" as="geometry" />
        </mxCell>
        <mxCell id="3GlJ5z1SRwsA6suBAlrv-24" value="start / reset countdown timer" style="shape=parallelogram;perimeter=parallelogramPerimeter;whiteSpace=wrap;html=1;fixedSize=1;fillColor=#d5e8d4;strokeColor=#82b366;" vertex="1" parent="1">
          <mxGeometry x="758.3186951066499" y="323.8095238095238" width="172.39648682559599" height="78.91156462585035" as="geometry" />
        </mxCell>
        <mxCell id="3GlJ5z1SRwsA6suBAlrv-25" value="Display movements" style="shape=parallelogram;perimeter=parallelogramPerimeter;whiteSpace=wrap;html=1;fixedSize=1;fillColor=#d5e8d4;strokeColor=#82b366;" vertex="1" parent="1">
          <mxGeometry x="787.051442910916" y="231.74603174603175" width="172.39648682559599" height="78.91156462585035" as="geometry" />
        </mxCell>
        <mxCell id="3GlJ5z1SRwsA6suBAlrv-26" style="edgeStyle=orthogonalEdgeStyle;rounded=0;orthogonalLoop=1;jettySize=auto;html=1;exitX=1;exitY=0.25;exitDx=0;exitDy=0;entryX=0.028;entryY=0.473;entryDx=0;entryDy=0;entryPerimeter=0;" edge="1" parent="1" source="3GlJ5z1SRwsA6suBAlrv-16" target="3GlJ5z1SRwsA6suBAlrv-21">
          <mxGeometry relative="1" as="geometry" />
        </mxCell>
        <mxCell id="3GlJ5z1SRwsA6suBAlrv-27" value="" style="edgeStyle=orthogonalEdgeStyle;rounded=0;orthogonalLoop=1;jettySize=auto;html=1;exitX=1;exitY=0.5;exitDx=0;exitDy=0;" edge="1" parent="1" source="3GlJ5z1SRwsA6suBAlrv-68" target="3GlJ5z1SRwsA6suBAlrv-32">
          <mxGeometry relative="1" as="geometry" />
        </mxCell>
        <mxCell id="3GlJ5z1SRwsA6suBAlrv-28" value="true" style="edgeLabel;html=1;align=center;verticalAlign=middle;resizable=0;points=[];" vertex="1" connectable="0" parent="3GlJ5z1SRwsA6suBAlrv-27">
          <mxGeometry x="0.235" y="1" relative="1" as="geometry">
            <mxPoint x="-3" as="offset" />
          </mxGeometry>
        </mxCell>
        <mxCell id="3GlJ5z1SRwsA6suBAlrv-29" style="edgeStyle=orthogonalEdgeStyle;rounded=0;orthogonalLoop=1;jettySize=auto;html=1;entryX=0;entryY=0.5;entryDx=0;entryDy=0;" edge="1" parent="1" source="3GlJ5z1SRwsA6suBAlrv-30" target="3GlJ5z1SRwsA6suBAlrv-68">
          <mxGeometry relative="1" as="geometry" />
        </mxCell>
        <mxCell id="3GlJ5z1SRwsA6suBAlrv-30" value="Transfer money" style="ellipse;whiteSpace=wrap;html=1;fillColor=#f8cecc;strokeColor=#b85450;" vertex="1" parent="1">
          <mxGeometry x="40" y="514.5124716553288" width="172.39648682559599" height="105.2154195011338" as="geometry" />
        </mxCell>
        <mxCell id="3GlJ5z1SRwsA6suBAlrv-31" value="" style="edgeStyle=orthogonalEdgeStyle;rounded=0;orthogonalLoop=1;jettySize=auto;html=1;" edge="1" parent="1" source="3GlJ5z1SRwsA6suBAlrv-32" target="3GlJ5z1SRwsA6suBAlrv-34">
          <mxGeometry relative="1" as="geometry" />
        </mxCell>
        <mxCell id="3GlJ5z1SRwsA6suBAlrv-32" value="Withdraw amount from current user" style="whiteSpace=wrap;html=1;fillColor=#ffe6cc;strokeColor=#d79b00;" vertex="1" parent="1">
          <mxGeometry x="403.4692597239648" y="527.6643990929706" width="172.39648682559599" height="78.91156462585035" as="geometry" />
        </mxCell>
        <mxCell id="3GlJ5z1SRwsA6suBAlrv-33" style="edgeStyle=orthogonalEdgeStyle;rounded=1;orthogonalLoop=1;jettySize=auto;html=1;entryX=0.25;entryY=1;entryDx=0;entryDy=0;curved=0;" edge="1" parent="1" source="3GlJ5z1SRwsA6suBAlrv-34" target="3GlJ5z1SRwsA6suBAlrv-16">
          <mxGeometry relative="1" as="geometry">
            <Array as="points">
              <mxPoint x="726.7126725219573" y="480.31746031746036" />
              <mxPoint x="593.1053952321205" y="480.31746031746036" />
            </Array>
          </mxGeometry>
        </mxCell>
        <mxCell id="3GlJ5z1SRwsA6suBAlrv-34" value="deposit amount in recipient account" style="whiteSpace=wrap;html=1;fillColor=#ffe6cc;strokeColor=#d79b00;" vertex="1" parent="1">
          <mxGeometry x="640.5144291091593" y="527.6643990929706" width="172.39648682559599" height="78.91156462585035" as="geometry" />
        </mxCell>
        <mxCell id="3GlJ5z1SRwsA6suBAlrv-35" value="" style="edgeStyle=orthogonalEdgeStyle;rounded=0;orthogonalLoop=1;jettySize=auto;html=1;" edge="1" parent="1" source="3GlJ5z1SRwsA6suBAlrv-36" target="3GlJ5z1SRwsA6suBAlrv-41">
          <mxGeometry relative="1" as="geometry" />
        </mxCell>
        <mxCell id="3GlJ5z1SRwsA6suBAlrv-36" value="Request loan" style="ellipse;whiteSpace=wrap;html=1;fillColor=#f8cecc;strokeColor=#b85450;" vertex="1" parent="1">
          <mxGeometry x="40" y="652.6077097505669" width="172.39648682559599" height="105.2154195011338" as="geometry" />
        </mxCell>
        <mxCell id="3GlJ5z1SRwsA6suBAlrv-37" value="" style="edgeStyle=orthogonalEdgeStyle;rounded=0;orthogonalLoop=1;jettySize=auto;html=1;" edge="1" parent="1" source="3GlJ5z1SRwsA6suBAlrv-41" target="3GlJ5z1SRwsA6suBAlrv-42">
          <mxGeometry relative="1" as="geometry" />
        </mxCell>
        <mxCell id="3GlJ5z1SRwsA6suBAlrv-38" value="false" style="edgeLabel;html=1;align=center;verticalAlign=middle;resizable=0;points=[];" vertex="1" connectable="0" parent="3GlJ5z1SRwsA6suBAlrv-37">
          <mxGeometry x="-0.3775" relative="1" as="geometry">
            <mxPoint as="offset" />
          </mxGeometry>
        </mxCell>
        <mxCell id="3GlJ5z1SRwsA6suBAlrv-71" value="" style="edgeStyle=orthogonalEdgeStyle;rounded=0;orthogonalLoop=1;jettySize=auto;html=1;" edge="1" parent="1" source="3GlJ5z1SRwsA6suBAlrv-41" target="3GlJ5z1SRwsA6suBAlrv-70">
          <mxGeometry relative="1" as="geometry" />
        </mxCell>
        <mxCell id="3GlJ5z1SRwsA6suBAlrv-72" value="true" style="edgeLabel;html=1;align=center;verticalAlign=middle;resizable=0;points=[];" vertex="1" connectable="0" parent="3GlJ5z1SRwsA6suBAlrv-71">
          <mxGeometry x="-0.2354" y="-2" relative="1" as="geometry">
            <mxPoint as="offset" />
          </mxGeometry>
        </mxCell>
        <mxCell id="3GlJ5z1SRwsA6suBAlrv-41" value="Meets conditions?" style="rhombus;whiteSpace=wrap;html=1;fillColor=#dae8fc;strokeColor=#6c8ebf;" vertex="1" parent="1">
          <mxGeometry x="255.50031367628605" y="652.6077097505669" width="114.93099121706399" height="105.2154195011338" as="geometry" />
        </mxCell>
        <mxCell id="3GlJ5z1SRwsA6suBAlrv-42" value="Display message" style="shape=parallelogram;perimeter=parallelogramPerimeter;whiteSpace=wrap;html=1;fixedSize=1;fillColor=#d5e8d4;strokeColor=#82b366;" vertex="1" parent="1">
          <mxGeometry x="226.76756587202" y="807.8004535147393" width="172.39648682559599" height="78.91156462585035" as="geometry" />
        </mxCell>
        <mxCell id="3GlJ5z1SRwsA6suBAlrv-43" value="deposit amount in current user" style="whiteSpace=wrap;html=1;fillColor=#ffe6cc;strokeColor=#d79b00;" vertex="1" parent="1">
          <mxGeometry x="624.7114178168131" y="665.7596371882087" width="172.39648682559599" height="78.91156462585035" as="geometry" />
        </mxCell>
        <mxCell id="3GlJ5z1SRwsA6suBAlrv-44" style="edgeStyle=orthogonalEdgeStyle;rounded=0;orthogonalLoop=1;jettySize=auto;html=1;entryX=0;entryY=0.5;entryDx=0;entryDy=0;" edge="1" parent="1" source="3GlJ5z1SRwsA6suBAlrv-45" target="3GlJ5z1SRwsA6suBAlrv-48">
          <mxGeometry relative="1" as="geometry" />
        </mxCell>
        <mxCell id="3GlJ5z1SRwsA6suBAlrv-45" value="Close account" style="ellipse;whiteSpace=wrap;html=1;fillColor=#f8cecc;strokeColor=#b85450;" vertex="1" parent="1">
          <mxGeometry x="40" y="945.8956916099773" width="172.39648682559599" height="105.2154195011338" as="geometry" />
        </mxCell>
        <mxCell id="3GlJ5z1SRwsA6suBAlrv-46" value="" style="edgeStyle=orthogonalEdgeStyle;rounded=0;orthogonalLoop=1;jettySize=auto;html=1;entryX=0;entryY=0.5;entryDx=0;entryDy=0;" edge="1" parent="1" source="3GlJ5z1SRwsA6suBAlrv-48" target="3GlJ5z1SRwsA6suBAlrv-76">
          <mxGeometry relative="1" as="geometry">
            <mxPoint x="446.56838143036384" y="1020.8616780045352" as="targetPoint" />
          </mxGeometry>
        </mxCell>
        <mxCell id="3GlJ5z1SRwsA6suBAlrv-47" value="true" style="edgeLabel;html=1;align=center;verticalAlign=middle;resizable=0;points=[];" vertex="1" connectable="0" parent="3GlJ5z1SRwsA6suBAlrv-46">
          <mxGeometry x="-0.2905" relative="1" as="geometry">
            <mxPoint as="offset" />
          </mxGeometry>
        </mxCell>
        <mxCell id="3GlJ5z1SRwsA6suBAlrv-48" value="Check credentials" style="rhombus;whiteSpace=wrap;html=1;fillColor=#dae8fc;strokeColor=#6c8ebf;" vertex="1" parent="1">
          <mxGeometry x="255.495608531995" y="945.8956916099773" width="114.93099121706399" height="105.2154195011338" as="geometry" />
        </mxCell>
        <mxCell id="3GlJ5z1SRwsA6suBAlrv-49" style="edgeStyle=orthogonalEdgeStyle;rounded=0;orthogonalLoop=1;jettySize=auto;html=1;entryX=0.5;entryY=1;entryDx=0;entryDy=0;" edge="1" parent="1" source="3GlJ5z1SRwsA6suBAlrv-51" target="3GlJ5z1SRwsA6suBAlrv-48">
          <mxGeometry relative="1" as="geometry" />
        </mxCell>
        <mxCell id="3GlJ5z1SRwsA6suBAlrv-50" value="false" style="edgeLabel;html=1;align=center;verticalAlign=middle;resizable=0;points=[];" vertex="1" connectable="0" parent="3GlJ5z1SRwsA6suBAlrv-49">
          <mxGeometry x="-0.1938" relative="1" as="geometry">
            <mxPoint as="offset" />
          </mxGeometry>
        </mxCell>
        <mxCell id="3GlJ5z1SRwsA6suBAlrv-51" value="Display message" style="shape=parallelogram;perimeter=parallelogramPerimeter;whiteSpace=wrap;html=1;fixedSize=1;fillColor=#d5e8d4;strokeColor=#82b366;" vertex="1" parent="1">
          <mxGeometry x="226.762860727729" y="1101.0884353741496" width="172.39648682559599" height="78.91156462585035" as="geometry" />
        </mxCell>
        <mxCell id="3GlJ5z1SRwsA6suBAlrv-52" value="" style="edgeStyle=orthogonalEdgeStyle;rounded=0;orthogonalLoop=1;jettySize=auto;html=1;" edge="1" parent="1" source="3GlJ5z1SRwsA6suBAlrv-53" target="3GlJ5z1SRwsA6suBAlrv-55">
          <mxGeometry relative="1" as="geometry" />
        </mxCell>
        <mxCell id="3GlJ5z1SRwsA6suBAlrv-53" value="Delete user data" style="rounded=0;whiteSpace=wrap;html=1;fillColor=#ffe6cc;strokeColor=#d79b00;" vertex="1" parent="1">
          <mxGeometry x="613.2020075282309" y="959.047619047619" width="172.39648682559599" height="78.91156462585035" as="geometry" />
        </mxCell>
        <mxCell id="3GlJ5z1SRwsA6suBAlrv-54" style="edgeStyle=orthogonalEdgeStyle;rounded=0;orthogonalLoop=1;jettySize=auto;html=1;entryX=0;entryY=0.5;entryDx=0;entryDy=0;" edge="1" parent="1" source="3GlJ5z1SRwsA6suBAlrv-55" target="3GlJ5z1SRwsA6suBAlrv-56">
          <mxGeometry relative="1" as="geometry" />
        </mxCell>
        <mxCell id="3GlJ5z1SRwsA6suBAlrv-55" value="Hide UI" style="shape=parallelogram;perimeter=parallelogramPerimeter;whiteSpace=wrap;html=1;fixedSize=1;rounded=0;fillColor=#d5e8d4;strokeColor=#82b366;" vertex="1" parent="1">
          <mxGeometry x="821.5144291091593" y="959.047619047619" width="172.39648682559599" height="78.91156462585035" as="geometry" />
        </mxCell>
        <mxCell id="3GlJ5z1SRwsA6suBAlrv-56" value="End timer" style="ellipse;whiteSpace=wrap;html=1;fillColor=#f8cecc;strokeColor=#b85450;" vertex="1" parent="1">
          <mxGeometry x="1022.6436637390213" y="945.8956916099773" width="172.39648682559599" height="105.2154195011338" as="geometry" />
        </mxCell>
        <mxCell id="3GlJ5z1SRwsA6suBAlrv-57" style="edgeStyle=orthogonalEdgeStyle;rounded=0;orthogonalLoop=1;jettySize=auto;html=1;entryX=0.5;entryY=1;entryDx=0;entryDy=0;" edge="1" parent="1" source="3GlJ5z1SRwsA6suBAlrv-60" target="3GlJ5z1SRwsA6suBAlrv-63">
          <mxGeometry relative="1" as="geometry" />
        </mxCell>
        <mxCell id="3GlJ5z1SRwsA6suBAlrv-58" value="true" style="edgeLabel;html=1;align=center;verticalAlign=middle;resizable=0;points=[];" vertex="1" connectable="0" parent="3GlJ5z1SRwsA6suBAlrv-57">
          <mxGeometry x="-0.1402" y="3" relative="1" as="geometry">
            <mxPoint as="offset" />
          </mxGeometry>
        </mxCell>
        <mxCell id="3GlJ5z1SRwsA6suBAlrv-59" style="edgeStyle=orthogonalEdgeStyle;rounded=1;orthogonalLoop=1;jettySize=auto;html=1;entryX=0.882;entryY=0.723;entryDx=0;entryDy=0;entryPerimeter=0;exitX=0;exitY=0.5;exitDx=0;exitDy=0;curved=0;" edge="1" parent="1" source="3GlJ5z1SRwsA6suBAlrv-60" target="3GlJ5z1SRwsA6suBAlrv-25">
          <mxGeometry relative="1" as="geometry">
            <mxPoint x="985.3074027603511" y="880.1360544217688" as="sourcePoint" />
            <mxPoint x="940.771643663739" y="301.4512471655329" as="targetPoint" />
          </mxGeometry>
        </mxCell>
        <mxCell id="3GlJ5z1SRwsA6suBAlrv-60" value="Sort movements" style="ellipse;whiteSpace=wrap;html=1;fillColor=#f8cecc;strokeColor=#b85450;" vertex="1" parent="1">
          <mxGeometry x="1012.603513174404" y="807.8004535147393" width="172.39648682559599" height="105.2154195011338" as="geometry" />
        </mxCell>
        <mxCell id="3GlJ5z1SRwsA6suBAlrv-61" value="" style="edgeStyle=orthogonalEdgeStyle;rounded=0;orthogonalLoop=1;jettySize=auto;html=1;" edge="1" parent="1" source="3GlJ5z1SRwsA6suBAlrv-63" target="3GlJ5z1SRwsA6suBAlrv-65">
          <mxGeometry relative="1" as="geometry" />
        </mxCell>
        <mxCell id="3GlJ5z1SRwsA6suBAlrv-62" value="false" style="edgeLabel;html=1;align=center;verticalAlign=middle;resizable=0;points=[];" vertex="1" connectable="0" parent="3GlJ5z1SRwsA6suBAlrv-61">
          <mxGeometry x="-0.1374" y="1" relative="1" as="geometry">
            <mxPoint as="offset" />
          </mxGeometry>
        </mxCell>
        <mxCell id="3GlJ5z1SRwsA6suBAlrv-63" value="Is sorted?" style="rhombus;whiteSpace=wrap;html=1;fillColor=#dae8fc;strokeColor=#6c8ebf;" vertex="1" parent="1">
          <mxGeometry x="1032.7164366373902" y="649.9773242630386" width="132.17063989962358" height="105.2154195011338" as="geometry" />
        </mxCell>
        <mxCell id="3GlJ5z1SRwsA6suBAlrv-64" style="edgeStyle=orthogonalEdgeStyle;rounded=1;orthogonalLoop=1;jettySize=auto;html=1;entryX=1;entryY=0.5;entryDx=0;entryDy=0;curved=0;" edge="1" parent="1" source="3GlJ5z1SRwsA6suBAlrv-65" target="3GlJ5z1SRwsA6suBAlrv-25">
          <mxGeometry relative="1" as="geometry">
            <Array as="points">
              <mxPoint x="1098.801756587202" y="271.2018140589569" />
            </Array>
          </mxGeometry>
        </mxCell>
        <mxCell id="3GlJ5z1SRwsA6suBAlrv-65" value="Sort movements" style="whiteSpace=wrap;html=1;fillColor=#ffe6cc;strokeColor=#d79b00;" vertex="1" parent="1">
          <mxGeometry x="1012.603513174404" y="492.15419501133783" width="172.39648682559599" height="78.91156462585035" as="geometry" />
        </mxCell>
        <mxCell id="3GlJ5z1SRwsA6suBAlrv-66" style="edgeStyle=orthogonalEdgeStyle;rounded=0;orthogonalLoop=1;jettySize=auto;html=1;entryX=0.5;entryY=1;entryDx=0;entryDy=0;" edge="1" parent="1" source="3GlJ5z1SRwsA6suBAlrv-68" target="3GlJ5z1SRwsA6suBAlrv-69">
          <mxGeometry relative="1" as="geometry" />
        </mxCell>
        <mxCell id="3GlJ5z1SRwsA6suBAlrv-67" value="false" style="edgeLabel;html=1;align=center;verticalAlign=middle;resizable=0;points=[];" vertex="1" connectable="0" parent="3GlJ5z1SRwsA6suBAlrv-66">
          <mxGeometry x="0.5014" relative="1" as="geometry">
            <mxPoint y="5" as="offset" />
          </mxGeometry>
        </mxCell>
        <mxCell id="3GlJ5z1SRwsA6suBAlrv-68" value="Meets conditions?" style="rhombus;whiteSpace=wrap;html=1;fillColor=#dae8fc;strokeColor=#6c8ebf;" vertex="1" parent="1">
          <mxGeometry x="241.12923462986197" y="514.5124716553288" width="114.93099121706399" height="105.2154195011338" as="geometry" />
        </mxCell>
        <mxCell id="3GlJ5z1SRwsA6suBAlrv-69" value="Display message" style="shape=parallelogram;perimeter=parallelogramPerimeter;whiteSpace=wrap;html=1;fixedSize=1;fillColor=#d5e8d4;strokeColor=#82b366;" vertex="1" parent="1">
          <mxGeometry x="212.39648682559596" y="397.46031746031747" width="172.39648682559599" height="78.91156462585035" as="geometry" />
        </mxCell>
        <mxCell id="3GlJ5z1SRwsA6suBAlrv-73" value="" style="edgeStyle=orthogonalEdgeStyle;rounded=0;orthogonalLoop=1;jettySize=auto;html=1;" edge="1" parent="1" source="3GlJ5z1SRwsA6suBAlrv-70" target="3GlJ5z1SRwsA6suBAlrv-43">
          <mxGeometry relative="1" as="geometry" />
        </mxCell>
        <mxCell id="3GlJ5z1SRwsA6suBAlrv-75" value="true" style="edgeLabel;html=1;align=center;verticalAlign=middle;resizable=0;points=[];" vertex="1" connectable="0" parent="3GlJ5z1SRwsA6suBAlrv-73">
          <mxGeometry x="-0.1885" y="-1" relative="1" as="geometry">
            <mxPoint as="offset" />
          </mxGeometry>
        </mxCell>
        <mxCell id="3GlJ5z1SRwsA6suBAlrv-70" value="user press okay on confirmation message" style="rhombus;whiteSpace=wrap;html=1;fillColor=#dae8fc;strokeColor=#6c8ebf;" vertex="1" parent="1">
          <mxGeometry x="449.666800501882" y="665.2154195011337" width="80" height="80" as="geometry" />
        </mxCell>
        <mxCell id="3GlJ5z1SRwsA6suBAlrv-77" value="" style="edgeStyle=orthogonalEdgeStyle;rounded=0;orthogonalLoop=1;jettySize=auto;html=1;" edge="1" parent="1" source="3GlJ5z1SRwsA6suBAlrv-76" target="3GlJ5z1SRwsA6suBAlrv-53">
          <mxGeometry relative="1" as="geometry" />
        </mxCell>
        <mxCell id="3GlJ5z1SRwsA6suBAlrv-78" value="true" style="edgeLabel;html=1;align=center;verticalAlign=middle;resizable=0;points=[];" vertex="1" connectable="0" parent="3GlJ5z1SRwsA6suBAlrv-77">
          <mxGeometry x="-0.0663" y="1" relative="1" as="geometry">
            <mxPoint as="offset" />
          </mxGeometry>
        </mxCell>
        <mxCell id="3GlJ5z1SRwsA6suBAlrv-76" value="user press okay on confirmation message" style="rhombus;whiteSpace=wrap;html=1;fillColor=#dae8fc;strokeColor=#6c8ebf;" vertex="1" parent="1">
          <mxGeometry x="449.666800501882" y="957.9554195011337" width="80" height="80" as="geometry" />
        </mxCell>
      </root>
    </mxGraphModel>
  </diagram>
</mxfile>
